<?xml version="1.0" standalone="no"?>
<!DOCTYPE svg PUBLIC "-//W3C//DTD SVG 20010904//EN"
 "http://www.w3.org/TR/2001/REC-SVG-20010904/DTD/svg10.dtd">
<svg version="1.0" xmlns="http://www.w3.org/2000/svg"
 width="81.000000pt" height="80.000000pt" viewBox="0 0 81.000000 80.000000"
 preserveAspectRatio="xMidYMid meet">
<metadata>
Created by potrace 1.10, written by Peter Selinger 2001-2011
</metadata>
<g transform="translate(0.000000,80.000000) scale(0.100000,-0.100000)"
fill="#ffffff" stroke="none">
<path d="M189 759 c-38 -40 -46 -88 -25 -143 12 -32 48 -74 128 -151 l110
-107 110 108 c61 60 116 123 124 141 27 62 11 133 -38 167 -31 22 -111 20
-157 -4 -38 -19 -39 -19 -77 0 -24 13 -58 20 -92 20 -47 0 -58 -4 -83 -31z
m166 -21 l45 -22 45 22 c67 32 117 29 149 -9 28 -33 33 -76 15 -112 -16 -32
-191 -207 -207 -207 -7 0 -58 44 -112 98 l-100 97 0 54 c0 98 64 128 165 79z"/>
<path d="M61 576 c-18 -22 -51 -136 -51 -178 0 -34 9 -45 114 -144 63 -59 117
-118 120 -130 4 -13 -1 -43 -9 -66 -8 -24 -15 -45 -15 -48 0 -3 32 -5 70 -5
l70 0 0 118 c0 132 5 121 -94 200 -20 16 -48 52 -63 80 -16 28 -34 52 -40 55
-24 7 -26 -30 -3 -69 39 -71 3 -94 -56 -35 -38 38 -41 56 -18 125 24 75 8 137
-25 97z m180 -272 c13 -14 36 -32 52 -40 27 -14 27 -15 27 -124 l0 -110 -25 0
c-24 0 -25 3 -25 61 l0 62 -65 62 c-36 35 -65 66 -65 69 0 3 9 6 20 6 11 0 25
9 32 20 16 26 20 25 49 -6z"/>
<path d="M717 583 c-13 -12 -7 -63 12 -114 11 -28 17 -58 14 -67 -10 -28 -66
-82 -84 -82 -29 0 -31 16 -8 63 21 43 21 77 -1 77 -5 0 -24 -25 -41 -55 -17
-30 -46 -67 -65 -82 -99 -79 -94 -68 -94 -200 l0 -118 71 0 c65 0 70 1 64 20
-4 11 -9 41 -12 67 -6 53 -18 38 146 191 l84 79 -6 56 c-9 102 -53 192 -80
165z m-99 -273 c7 -11 21 -20 32 -20 11 0 20 -3 20 -6 0 -4 -29 -35 -65 -69
l-65 -63 0 -61 c0 -58 -1 -61 -25 -61 l-25 0 0 108 0 107 39 24 c22 14 45 33
52 43 17 23 21 23 37 -2z"/>
</g>
</svg>
